<?xml version="1.0" encoding="utf-8"?>
<!-- Generator: Adobe Illustrator 16.0.0, SVG Export Plug-In . SVG Version: 6.00 Build 0)  -->
<!DOCTYPE svg PUBLIC "-//W3C//DTD SVG 1.1//EN" "http://www.w3.org/Graphics/SVG/1.1/DTD/svg11.dtd">
<svg version="1.1" id="Capa_1" xmlns="http://www.w3.org/2000/svg" xmlns:xlink="http://www.w3.org/1999/xlink" x="0px" y="0px"
	 width="64.333px" height="45.667px" viewBox="0 0 64.333 45.667" enable-background="new 0 0 64.333 45.667" xml:space="preserve">
<path fill="#C6C6C5" stroke="#000000" stroke-miterlimit="10" d="M63.833,33.167c0,6.627-5.373,12-12,12H12.5
	c-6.627,0-12-5.373-12-12V12.5c0-6.627,5.373-12,12-12h39.333c6.627,0,12,5.373,12,12V33.167z"/>
<path fill="#E2E0DF" stroke="#000000" stroke-miterlimit="10" d="M60.5,25.167c0,6.627-5.373,12-12,12H19.867
	c-6.627,0-12-5.373-12-12V14.499c0-6.627,5.373-12,12-12H48.5c6.627,0,12,5.373,12,12V25.167z"/>
<polygon fill="#FFFFFF" stroke="#000000" stroke-width="3" stroke-miterlimit="10" points="43.705,19.16 35.167,28.886 
	26.626,19.16 31.181,19.16 31.234,12.779 38.763,12.779 38.763,19.16 "/>
</svg>
